<svg xmlns="http://www.w3.org/2000/svg" enable-background="new 0 0 32 32" viewBox="0 0 32 32"><path fill="#E3F8FA" d="M26,32H6c-3.314,0-6-2.686-6-6V6c0-3.314,2.686-6,6-6h20c3.314,0,6,2.686,6,6v20C32,29.314,29.314,32,26,32z"/><path fill="#26C6DA" d="M17.311,17.118c-0.511,0-0.791-0.07-1.221-0.246l-0.159-0.073l-0.181,1.05c0.311,0.128,0.871,0.238,1.45,0.246c1.361,0,2.25-0.631,2.261-1.603c0.011-0.534-0.34-0.94-1.081-1.273c-0.449-0.217-0.729-0.362-0.729-0.582c0-0.195,0.239-0.402,0.739-0.402c0.43-0.007,0.731,0.085,0.97,0.179l0.12,0.053l0.181-1.014l-0.031,0.007c-0.258-0.096-0.66-0.198-1.16-0.198c-1.28,0-2.184,0.636-2.19,1.547c-0.008,0.67,0.643,1.047,1.134,1.272c0.505,0.23,0.673,0.374,0.672,0.582C18.083,16.976,17.683,17.118,17.311,17.118z"/><path fill="#8CE1EB" d="M22.952,13.347h-1c-0.311,0-0.544,0.084-0.681,0.388l-1.923,4.293h1.361l0.272-0.703l1.66,0.001c0.041,0.164,0.16,0.702,0.16,0.702H24L22.952,13.347z M21.353,16.366l0.516-1.309c-0.007,0.013,0.107-0.271,0.172-0.447l0.089,0.404l0.299,1.352H21.353z"/><polygon fill="#8CE1EB" points="13.629 17.992 14.925 17.992 15.735 13.308 14.44 13.308 14.44 13.307"/><path fill="#26C6DA" d="M11.282,16.54l-0.135-0.65v0.002l-0.455-2.151c-0.078-0.298-0.306-0.386-0.589-0.397H8.016L8,13.443c0.47,0.11,0.893,0.269,1.272,0.465c0.068,0.042,0.097,0.088,0.12,0.156l1.12,3.96h1.369l2.041-4.675h-1.373L11.282,16.54z"/></svg>